#N canvas 179 70 1025 624 10;
#X declare -lib mrpeach;
#X obj 364 354 s subphase;
#X obj 35 342 s strbump;
#X obj 35 199 s mainfreq;
#X obj 45 507 s freq-\$1;
#X obj 35 405 s gain-\$1;
#X obj 50 471 s speed-\$1;
#X msg 280 385 1 \, 0 2000;
#X obj 33 -42 tgl 15 0 empty empty empty 17 7 0 10 -262144 -1 -1 0
1;
#X obj 33 -22 metro 100;
#X obj 33 0 int;
#X obj 33 22 + 1;
#X obj 33 44 s grow;
#N canvas 418 98 723 602 glitching 0;
#X obj 27 410 s strbmul;
#X obj 27 57 r grow;
#X obj 27 186 sel 1;
#X obj 27 164 % 20;
#X obj 27 230 sel 1;
#X msg 77 343 3;
#X msg 27 383 1;
#X obj 34 281 random 5;
#X obj 34 302 * 100;
#X obj 27 361 delay;
#X obj 27 252 t b b b;
#X obj 117 10 inlet;
#X obj 117 32 * -1;
#X obj 117 54 + 1;
#X obj 81 127 + 2;
#X obj 81 147 int;
#X obj 117 285 * 500;
#X obj 81 107 * 40;
#X obj 210 235 inlet;
#X obj 27 84 spigot;
#X obj 34 324 + 150;
#X obj 27 208 random 3;
#X obj 93 176 / 6;
#X obj 93 197 int;
#X obj 93 218 + 2;
#X connect 1 0 19 0;
#X connect 2 0 21 0;
#X connect 3 0 2 0;
#X connect 4 0 10 0;
#X connect 5 0 0 0;
#X connect 6 0 0 0;
#X connect 7 0 8 0;
#X connect 8 0 20 0;
#X connect 9 0 6 0;
#X connect 10 0 9 0;
#X connect 10 1 7 0;
#X connect 10 2 5 0;
#X connect 11 0 12 0;
#X connect 11 0 19 1;
#X connect 12 0 13 0;
#X connect 13 0 17 0;
#X connect 13 0 16 0;
#X connect 14 0 15 0;
#X connect 15 0 3 1;
#X connect 15 0 22 0;
#X connect 16 0 8 1;
#X connect 17 0 14 0;
#X connect 18 0 10 0;
#X connect 19 0 3 0;
#X connect 20 0 9 1;
#X connect 21 0 4 0;
#X connect 22 0 23 0;
#X connect 23 0 24 0;
#X connect 24 0 21 1;
#X restore 48 127 pd glitching;
#X obj 280 407 s bump-2;
#X obj 359 17 s position;
#X obj 35 151 loadbang;
#X text -9 213 we are acustomed to 30 fps;
#X obj 366 98 s allspeed;
#X obj 32 445 s strbump;
#X obj 643 -26 s subump;
#X obj 35 363 s strbmul;
#X obj 359 -28 s strbmul;
#N canvas 760 334 450 300 transition 0;
#X obj 131 202 s strbmul;
#X msg 112 162 1;
#X obj 91 69 r zerox;
#X obj 183 75 inlet;
#X msg 186 134 2;
#X obj 112 140 once;
#X obj 184 101 t b b;
#X obj 262 46 r transition;
#X obj 84 162 bng 15 250 50 0 empty empty empty 17 7 0 10 -262144 -1
-1;
#X obj 180 30 bng 15 250 50 0 empty empty empty 17 7 0 10 -262144 -1
-1;
#X connect 1 0 0 0;
#X connect 2 0 5 0;
#X connect 2 0 8 0;
#X connect 3 0 6 0;
#X connect 4 0 0 0;
#X connect 5 0 1 0;
#X connect 6 0 4 0;
#X connect 6 1 5 1;
#X connect 7 0 6 0;
#X connect 9 0 6 0;
#X restore 112 300 pd transition;
#X obj 811 -14 r zerox;
#X obj 811 8 bng 15 250 50 0 empty empty empty 17 7 0 10 -262144 -1
-1;
#X msg 811 28 0;
#X obj 810 50 pipe 100;
#X obj 691 71 s strbtwo_en;
#X obj 761 246 s strbtwo;
#X obj 691 50 tgl 15 0 empty empty empty 17 7 0 10 -262144 -1 -1 0
1;
#X obj 359 -48 hradio 15 1 0 8 empty empty empty 0 -8 0 10 -262144
-1 -1 0;
#N canvas 561 174 716 547 fingers 0;
#X obj 65 32 r osc;
#X obj 69 93 routeOSC /fingers/multixy1 /fingers/multitoggle1/6/1;
#X obj 69 234 change;
#X obj 69 207 s2l /;
#X obj 168 225 print;
#X obj 69 149 prepend;
#X connect 0 0 1 0;
#X connect 1 0 5 0;
#X connect 1 1 5 1;
#X connect 3 0 2 0;
#X connect 5 0 4 0;
#X restore 46 106 pd fingers;
#X obj 47 78 import mrpeach;
#X obj 543 8 sel 0 1;
#X obj 543 54 s strbmul;
#X msg 543 31 1;
#X obj 543 -13 tgl 15 0 empty empty empty 17 7 0 10 -262144 -1 -1 0
1;
#X msg 570 31 4;
#X msg 643 -48 1 \, 0 2000;
#X obj 362 -2 hsl 90 15 0 1 0 0 empty empty empty -2 -8 0 10 -262144
-1 -1 6500 1;
#X obj 691 94 r strbwo_sync;
#X msg 661 106 0;
#X obj 761 225 line;
#X obj 735 35 bng 15 250 50 0 empty empty empty 17 7 0 10 -262144 -1
-1;
#X obj 691 117 spigot;
#X obj 735 117 t b b;
#X msg 761 184 1.5 \, 0.5 3000;
#X obj 684 184 delay 3000;
#X msg 656 184 1;
#X msg 737 156 0;
#X msg 684 208 0.5 5000;
#X obj 625 134 t b;
#X msg 627 159 0;
#X obj 579 217 r strbtwo_catch;
#X floatatom 263 50 5 0 0 0 - - -;
#X obj 263 72 s position;
#X obj 263 6 random 8;
#X obj 263 28 / 8;
#X obj 263 -36 r popit;
#X obj 263 -14 bng 15 250 50 0 empty empty empty 17 7 0 10 -262144
-1 -1;
#X obj 366 76 line;
#X msg 366 54 0 \, 0.7 3000;
#N canvas 447 337 450 300 backforth 0;
#X obj 206 230 s strbspeed;
#X obj 211 128 t b b;
#X msg 211 180 0;
#X text 289 127 back forth;
#X obj 213 94 bng 15 250 50 0 empty empty empty 17 7 0 10 -262144 -1
-1;
#X obj 299 165 r allspeed;
#X obj 250 179 f;
#X obj 211 155 delay 300;
#X obj 272 69 * 500;
#X floatatom 283 93 5 0 0 0 - - -;
#X obj 250 200 +;
#X obj 212 61 r testb;
#X obj 374 207 / 127;
#X floatatom 374 229 5 0 0 0 - - -;
#X connect 1 0 7 0;
#X connect 1 1 6 0;
#X connect 2 0 0 0;
#X connect 4 0 1 0;
#X connect 5 0 6 1;
#X connect 6 0 10 0;
#X connect 7 0 2 0;
#X connect 8 0 7 1;
#X connect 8 0 9 0;
#X connect 10 0 0 0;
#X connect 11 0 4 0;
#X connect 12 0 13 0;
#X connect 13 0 10 1;
#X restore 51 238 pd backforth;
#X msg 35 174 30;
#N canvas 187 403 450 300 shoot 0;
#X msg 252 180 29.97;
#X msg 217 177 30.1;
#X obj 246 112 r shoot;
#X obj 246 134 tgl 15 0 empty empty empty 17 7 0 10 -262144 -1 -1 0
1;
#X obj 246 156 sel 0 1;
#X obj 229 210 s mainfreq;
#X obj 246 65 inlet;
#X connect 0 0 5 0;
#X connect 1 0 5 0;
#X connect 2 0 3 0;
#X connect 3 0 4 0;
#X connect 4 0 1 0;
#X connect 4 1 0 0;
#X connect 6 0 3 0;
#X restore 111 185 pd shoot;
#X obj 111 165 tgl 15 0 empty empty empty 17 7 0 10 -262144 -1 -1 0
1;
#X obj 112 278 bng 15 250 50 0 empty empty empty 17 7 0 10 -262144
-1 -1;
#X msg 355 320 0.5;
#X connect 6 0 13 0;
#X connect 7 0 8 0;
#X connect 8 0 9 0;
#X connect 9 0 10 0;
#X connect 10 0 11 0;
#X connect 10 0 9 1;
#X connect 15 0 63 0;
#X connect 23 0 24 0;
#X connect 24 0 25 0;
#X connect 25 0 26 0;
#X connect 29 0 27 0;
#X connect 30 0 21 0;
#X connect 33 0 35 0;
#X connect 33 1 37 0;
#X connect 35 0 34 0;
#X connect 36 0 33 0;
#X connect 37 0 34 0;
#X connect 38 0 19 0;
#X connect 39 0 14 0;
#X connect 40 0 41 0;
#X connect 41 0 44 0;
#X connect 42 0 28 0;
#X connect 43 0 29 0;
#X connect 43 0 45 0;
#X connect 44 0 29 0;
#X connect 44 0 51 0;
#X connect 45 0 47 0;
#X connect 45 1 46 0;
#X connect 45 1 49 0;
#X connect 46 0 42 0;
#X connect 47 0 48 0;
#X connect 47 0 50 0;
#X connect 48 0 44 1;
#X connect 49 0 44 1;
#X connect 50 0 42 0;
#X connect 51 0 52 0;
#X connect 52 0 44 1;
#X connect 53 0 48 0;
#X connect 54 0 55 0;
#X connect 56 0 57 0;
#X connect 57 0 54 0;
#X connect 58 0 59 0;
#X connect 59 0 56 0;
#X connect 60 0 17 0;
#X connect 61 0 60 0;
#X connect 63 0 2 0;
#X connect 65 0 64 0;
#X connect 66 0 22 0;
#X connect 67 0 0 0;
