#N canvas 141 79 1118 683 10;
#X declare -lib mrpeach;
#X obj 47 402 s subphase;
#X obj 35 321 s duty;
#X obj 35 342 s strbump;
#X obj 35 199 s mainfreq;
#X msg 35 175 30;
#X obj 125 441 s freq-\$1;
#X obj 50 438 s gain-\$1;
#X obj 195 401 s speed-\$1;
#X msg 123 379 1 \, 0 2000;
#X obj 72 491 s sampdel-\$1;
#X text 102 473 perhaps math with beating frequency;
#X obj 33 -42 tgl 15 0 empty empty empty 17 7 0 10 -262144 -1 -1 0
1;
#X obj 33 -22 metro 100;
#X obj 33 0 int;
#X obj 33 22 + 1;
#X obj 33 44 s grow;
#N canvas 418 98 723 602 glitching 0;
#X obj 27 410 s strbmul;
#X obj 27 57 r grow;
#X obj 27 186 sel 1;
#X obj 27 164 % 20;
#X obj 27 230 sel 1;
#X msg 77 343 3;
#X msg 27 383 1;
#X obj 34 281 random 5;
#X obj 34 302 * 100;
#X obj 27 361 delay;
#X obj 27 252 t b b b;
#X obj 117 10 inlet;
#X obj 117 32 * -1;
#X obj 117 54 + 1;
#X obj 81 127 + 2;
#X obj 81 147 int;
#X obj 117 285 * 500;
#X obj 81 107 * 40;
#X obj 210 235 inlet;
#X obj 27 84 spigot;
#X obj 34 324 + 150;
#X obj 27 208 random 3;
#X obj 93 176 / 6;
#X obj 93 197 int;
#X obj 93 218 + 2;
#X connect 1 0 19 0;
#X connect 2 0 21 0;
#X connect 3 0 2 0;
#X connect 4 0 10 0;
#X connect 5 0 0 0;
#X connect 6 0 0 0;
#X connect 7 0 8 0;
#X connect 8 0 20 0;
#X connect 9 0 6 0;
#X connect 10 0 9 0;
#X connect 10 1 7 0;
#X connect 10 2 5 0;
#X connect 11 0 12 0;
#X connect 11 0 19 1;
#X connect 12 0 13 0;
#X connect 13 0 17 0;
#X connect 13 0 16 0;
#X connect 14 0 15 0;
#X connect 15 0 3 1;
#X connect 15 0 22 0;
#X connect 16 0 8 1;
#X connect 17 0 14 0;
#X connect 18 0 10 0;
#X connect 19 0 3 0;
#X connect 20 0 9 1;
#X connect 21 0 4 0;
#X connect 22 0 23 0;
#X connect 23 0 24 0;
#X connect 24 0 21 1;
#X restore 48 127 pd glitching;
#X obj 638 438 s strbspeed;
#X obj 643 336 t b b;
#X msg 643 388 0;
#X text 721 335 back forth;
#X obj 645 302 bng 15 250 50 0 empty empty empty 17 7 0 10 -262144
-1 -1;
#X obj 731 373 r allspeed;
#X obj 682 387 f;
#X obj 643 363 delay 300;
#X obj 704 277 * 500;
#X floatatom 715 301 5 0 0 0 - - -;
#X obj 682 408 +;
#X obj 123 401 s bump-2;
#X obj 644 269 r testb;
#X obj 748 421 / 127;
#X obj 742 398 ctlin 2 1;
#X floatatom 748 443 5 0 0 0 - - -;
#X obj 359 17 s position;
#X obj 35 151 loadbang;
#X text 61 174 we are acustomed to 30 fps;
#X obj 56 -89 ctlin 2 1;
#X obj 56 -67 / 127;
#X obj 56 -45 s force;
#X obj 238 51 s allspeed;
#X obj 277 414 s strbump;
#X obj 589 -26 s subump;
#X msg 239 16 0 \, 0.7 7000;
#X msg 253 -25 0;
#X obj 34 369 s strbmul;
#X obj 359 -28 s strbmul;
#N canvas 898 327 450 300 transition 0;
#X obj 179 73 r allspeed;
#X obj 140 197 s strbmul;
#X obj 140 127 delay;
#X obj 140 98 t b b;
#X msg 140 149 1;
#X obj 140 74 bng 15 250 50 0 empty empty empty 17 7 0 10 -262144 -1
-1;
#X obj 179 98 expr ((1/$f1)*1000)/2;
#X msg 186 134 16;
#X connect 0 0 6 0;
#X connect 2 0 4 0;
#X connect 3 0 2 0;
#X connect 3 1 7 0;
#X connect 4 0 1 0;
#X connect 5 0 3 0;
#X connect 6 0 2 1;
#X connect 7 0 1 0;
#X restore 54 255 pd transition;
#X obj 562 187 r zerox;
#X obj 562 209 bng 15 250 50 0 empty empty empty 17 7 0 10 -262144
-1 -1;
#X msg 562 229 0;
#X obj 561 251 pipe 100;
#X obj 691 71 s strbtwo_en;
#X obj 761 227 s strbtwo;
#X obj 691 50 tgl 15 0 empty empty empty 17 7 0 10 -262144 -1 -1 0
1;
#X obj 359 -48 hradio 15 1 0 8 empty empty empty 0 -8 0 10 -262144
-1 -1 2;
#N canvas 561 174 716 547 fingers 0;
#X obj 65 32 r osc;
#X obj 69 93 routeOSC /fingers/multixy1 /fingers/multitoggle1/6/1;
#X obj 69 234 change;
#X obj 69 207 s2l /;
#X obj 168 225 print;
#X obj 69 149 prepend;
#X connect 0 0 1 0;
#X connect 1 0 5 0;
#X connect 1 1 5 1;
#X connect 3 0 2 0;
#X connect 5 0 4 0;
#X restore 46 106 pd fingers;
#X obj 47 78 import mrpeach;
#X obj 492 -48 bng 15 250 50 0 empty empty empty 17 7 0 10 -262144
-1 -1;
#X obj 492 -28 s pop;
#X obj 537 -26 sel 0 1;
#X obj 537 20 s strbmul;
#X msg 537 -3 1;
#X obj 537 -47 tgl 15 0 empty empty empty 17 7 0 10 -262144 -1 -1 0
1;
#X msg 564 -3 4;
#X msg 589 -48 1 \, 0 2000;
#X obj 362 -2 hsl 90 15 0 1 0 0 empty empty empty -2 -8 0 10 -262144
-1 -1 7800 1;
#X obj 691 94 r strbwo_sync;
#X msg 661 106 0;
#X obj 761 206 line;
#X obj 721 35 bng 15 250 50 0 empty empty empty 17 7 0 10 -262144 -1
-1;
#X obj 691 117 spigot;
#X obj 746 121 t b b;
#X msg 761 184 1.5 \, 0.5 3000;
#X obj 684 184 delay 3000;
#X msg 695 155 1;
#X msg 759 158 0;
#X msg 684 208 0.5 5000;
#X connect 4 0 3 0;
#X connect 8 0 28 0;
#X connect 11 0 12 0;
#X connect 12 0 13 0;
#X connect 13 0 14 0;
#X connect 14 0 15 0;
#X connect 14 0 13 1;
#X connect 18 0 24 0;
#X connect 18 1 23 0;
#X connect 19 0 17 0;
#X connect 21 0 18 0;
#X connect 22 0 23 1;
#X connect 23 0 27 0;
#X connect 24 0 19 0;
#X connect 25 0 24 1;
#X connect 25 0 26 0;
#X connect 27 0 17 0;
#X connect 29 0 21 0;
#X connect 30 0 32 0;
#X connect 31 0 30 0;
#X connect 32 0 27 1;
#X connect 34 0 4 0;
#X connect 36 0 37 0;
#X connect 37 0 38 0;
#X connect 42 0 39 0;
#X connect 43 0 39 0;
#X connect 47 0 48 0;
#X connect 48 0 49 0;
#X connect 49 0 50 0;
#X connect 53 0 51 0;
#X connect 54 0 45 0;
#X connect 57 0 58 0;
#X connect 59 0 61 0;
#X connect 59 1 63 0;
#X connect 61 0 60 0;
#X connect 62 0 59 0;
#X connect 63 0 60 0;
#X connect 64 0 41 0;
#X connect 65 0 33 0;
#X connect 66 0 67 0;
#X connect 67 0 70 0;
#X connect 68 0 52 0;
#X connect 69 0 53 0;
#X connect 69 0 71 0;
#X connect 70 0 53 0;
#X connect 71 0 73 0;
#X connect 71 1 72 0;
#X connect 71 1 75 0;
#X connect 72 0 68 0;
#X connect 73 0 74 0;
#X connect 73 0 76 0;
#X connect 74 0 70 1;
#X connect 75 0 70 1;
#X connect 76 0 68 0;
