#N canvas 251 1141 1118 639 10;
#X obj 151 524 s subphase;
#X obj 442 434 s duty;
#X obj 442 455 s strbump;
#X obj 441 390 s mainfreq;
#X msg 441 366 30;
#X obj 325 392 s pop;
#X obj 165 391 s strbmul;
#X obj 165 371 hradio 15 1 0 8 empty empty empty 0 -8 0 10 -262144
-1 -1 0;
#X obj 325 372 bng 15 250 50 0 empty empty empty 17 7 0 10 -262144
-1 -1;
#X obj 91 430 s freq-\$1;
#X obj 78 519 s gain-\$1;
#X obj 259 432 s allspeed;
#X obj 156 432 s speed-\$1;
#X obj 363 455 s bump-\$1;
#X msg 363 433 1 \, 0 2000;
#X obj 330 543 s sampdel-\$1;
#X text 345 525 perhaps math with beating frequency;
#X obj 18 7 tgl 15 0 empty empty empty 17 7 0 10 -262144 -1 -1 1 1
;
#X obj 18 29 metro 100;
#X obj 18 51 int;
#X obj 18 73 + 1;
#X obj 18 95 s grow;
#X obj 45 51 r grow;
#X floatatom 45 73 5 0 0 0 - - -;
#X obj 138 21 r grow;
#X obj 138 43 / 10;
#X obj 138 65 int;
#X floatatom 138 87 5 0 0 0 - - -;
#N canvas 162 1339 450 300 glitching 0;
#X restore 556 368 pd glitching;
#X text 813 70 a series of event of a certain type;
#X text 811 86 short routines;
#X text 810 114 but with parameters such as force;
#X obj 790 382 s strbspeed;
#X msg 817 353 -1;
#X obj 790 299 t b b;
#X obj 790 326 delay 300;
#X msg 790 353 0;
#X text 829 298 back forth;
#X connect 4 0 3 0;
#X connect 7 0 6 0;
#X connect 8 0 5 0;
#X connect 14 0 13 0;
#X connect 17 0 18 0;
#X connect 18 0 19 0;
#X connect 19 0 20 0;
#X connect 20 0 21 0;
#X connect 20 0 19 1;
#X connect 22 0 23 0;
#X connect 24 0 25 0;
#X connect 25 0 26 0;
#X connect 26 0 27 0;
#X connect 33 0 32 0;
#X connect 34 0 35 0;
#X connect 34 1 33 0;
#X connect 35 0 36 0;
#X connect 36 0 32 0;
