#N canvas 143 83 1118 639 10;
#X obj 47 402 s subphase;
#X obj 35 321 s duty;
#X obj 35 342 s strbump;
#X obj 23 214 s mainfreq;
#X msg 23 190 30;
#X obj 125 441 s freq-\$1;
#X obj 50 438 s gain-\$1;
#X obj 195 401 s speed-\$1;
#X msg 123 379 1 \, 0 2000;
#X obj 72 491 s sampdel-\$1;
#X text 102 473 perhaps math with beating frequency;
#X obj 33 -42 tgl 15 0 empty empty empty 17 7 0 10 -262144 -1 -1 1
1;
#X obj 33 -22 metro 100;
#X obj 33 0 int;
#X obj 33 22 + 1;
#X obj 33 44 s grow;
#X obj 102 -59 r grow;
#X floatatom 102 -37 5 0 0 0 - - -;
#X obj 98 1 r grow;
#X obj 98 45 int;
#N canvas 2 309 276 453 glitching 0;
#X obj 27 410 s strbmul;
#X obj 27 57 r grow;
#X obj 27 186 sel 1;
#X obj 27 164 % 20;
#X obj 27 230 sel 1;
#X msg 77 343 3;
#X msg 27 383 1;
#X obj 34 281 random 5;
#X obj 34 302 * 100;
#X obj 27 361 delay;
#X obj 27 252 t b b b;
#X obj 117 10 inlet;
#X obj 117 32 * -1;
#X obj 117 54 + 1;
#X obj 81 127 + 2;
#X obj 81 147 int;
#X obj 117 285 * 500;
#X obj 81 107 * 40;
#X obj 210 235 inlet;
#X obj 27 84 spigot;
#X obj 34 324 + 150;
#X obj 27 208 random 3;
#X obj 93 176 / 6;
#X obj 93 197 int;
#X obj 93 218 + 2;
#X connect 1 0 19 0;
#X connect 2 0 21 0;
#X connect 3 0 2 0;
#X connect 4 0 10 0;
#X connect 5 0 0 0;
#X connect 6 0 0 0;
#X connect 7 0 8 0;
#X connect 8 0 20 0;
#X connect 9 0 6 0;
#X connect 10 0 9 0;
#X connect 10 1 7 0;
#X connect 10 2 5 0;
#X connect 11 0 12 0;
#X connect 11 0 19 1;
#X connect 12 0 13 0;
#X connect 13 0 17 0;
#X connect 13 0 16 0;
#X connect 14 0 15 0;
#X connect 15 0 3 1;
#X connect 15 0 22 0;
#X connect 16 0 8 1;
#X connect 17 0 14 0;
#X connect 18 0 10 0;
#X connect 19 0 3 0;
#X connect 20 0 9 1;
#X connect 21 0 4 0;
#X connect 22 0 23 0;
#X connect 23 0 24 0;
#X connect 24 0 21 1;
#X restore 310 73 pd glitching;
#X text 713 -331 a series of event of a certain type;
#X text 709 -315 short routines;
#X text 707 -287 but with parameters such as force;
#X obj 667 68 s strbspeed;
#X obj 667 -102 t b b;
#X msg 667 -20 0;
#X text 745 -103 back forth;
#X obj 669 -136 bng 15 250 50 0 empty empty empty 17 7 0 10 -262144
-1 -1;
#X obj 825 -47 r allspeed;
#X obj 769 -17 f;
#X obj 667 -75 delay 300;
#X obj 829 -130 * 500;
#X obj 919 156 vsl 15 128 0 1 0 0 force empty force 0 -9 0 10 -262144
-1 -1 0 1;
#X floatatom 889 -105 5 0 0 0 - - -;
#X obj 771 12 +;
#X obj 1049 -35 r force;
#X obj 123 401 s bump-2;
#X obj 611 -175 r testb;
#X obj 873 81 ctlin 1 1;
#X obj 879 104 / 127;
#X obj 951 21 / 127;
#X obj 945 -2 ctlin 2 1;
#X floatatom 951 43 5 0 0 0 - - -;
#X obj 399 367 s position;
#X obj 23 166 loadbang;
#X text 49 189 we are acustomed to 30 fps;
#X obj 213 -50 ctlin 2 1;
#X obj 213 -28 / 127;
#X obj 213 -6 s force;
#X obj 310 -66 vsl 30 128 0 1 0 0 empty empty empty 0 -9 0 10 -262144
-1 -1 0 1;
#X obj 379 48 bng 15 250 50 0 empty empty empty 17 7 0 10 -262144 -1
-1;
#X obj 98 23 / 50;
#X obj 98 67 % 8;
#X obj 98 95 hradio 15 1 0 8 empty empty empty 0 -8 0 10 -262144 -1
-1 3;
#X obj 33 -64 loadbang;
#X obj 507 -10 s allspeed;
#X obj 277 414 s strbump;
#X obj 399 345 / 8;
#X obj 399 189 r grow;
#X obj 399 255 int;
#X obj 399 277 % 8;
#X obj 399 233 / 6;
#X obj 399 301 * -1;
#X obj 399 323 + 8;
#X obj 432 301 - 1;
#X msg 486 268 8;
#X msg 480 216 6;
#X obj 399 211 spigot;
#X obj 439 -72 r grow;
#X obj 439 -28 sin;
#X obj 439 -6 / 5;
#X obj 439 -50 / 3;
#X obj 439 77 s subump;
#X floatatom 439 16 5 0 0 0 - - -;
#X obj 439 50 abs;
#X msg 508 -45 0 \, 0.7 7000;
#X msg 522 -86 0;
#X msg 498 28 0;
#X obj 456 184 tgl 15 0 empty empty empty 17 7 0 10 -262144 -1 -1 0
1;
#X obj 34 369 s strbmul;
#X obj 44 379 s strbmul;
#N canvas 898 327 450 300 transition 0;
#X obj 179 73 r allspeed;
#X obj 140 197 s strbmul;
#X obj 140 127 delay;
#X obj 140 98 t b b;
#X msg 140 149 1;
#X obj 140 74 bng 15 250 50 0 empty empty empty 17 7 0 10 -262144 -1
-1;
#X obj 179 98 expr ((1/$f1)*1000)/2;
#X msg 186 134 16;
#X connect 0 0 6 0;
#X connect 2 0 4 0;
#X connect 3 0 2 0;
#X connect 3 1 7 0;
#X connect 4 0 1 0;
#X connect 5 0 3 0;
#X connect 6 0 2 1;
#X connect 7 0 1 0;
#X restore 799 378 pd transition;
#X obj 658 312 r zerox;
#X obj 658 334 bng 15 250 50 0 empty empty empty 17 7 0 10 -262144
-1 -1;
#X msg 658 354 0;
#X obj 631 388 pipe 100;
#X obj 701 235 s strbtwo_en;
#X obj 598 218 s strbtwo;
#X obj 701 209 tgl 15 0 empty empty empty 17 7 0 10 -262144 -1 -1 0
1;
#X obj 617 195 / 127;
#X obj 611 172 ctlin 3 1;
#X connect 4 0 3 0;
#X connect 8 0 37 0;
#X connect 11 0 12 0;
#X connect 12 0 13 0;
#X connect 13 0 14 0;
#X connect 14 0 15 0;
#X connect 14 0 13 1;
#X connect 16 0 17 0;
#X connect 18 0 52 0;
#X connect 19 0 53 0;
#X connect 25 0 31 0;
#X connect 25 1 30 0;
#X connect 26 0 24 0;
#X connect 28 0 25 0;
#X connect 29 0 30 1;
#X connect 30 0 35 0;
#X connect 31 0 26 0;
#X connect 32 0 31 1;
#X connect 32 0 34 0;
#X connect 35 0 24 0;
#X connect 38 0 28 0;
#X connect 39 0 40 0;
#X connect 40 0 33 0;
#X connect 41 0 43 0;
#X connect 42 0 41 0;
#X connect 43 0 35 1;
#X connect 45 0 4 0;
#X connect 47 0 48 0;
#X connect 48 0 49 0;
#X connect 50 0 20 0;
#X connect 51 0 20 1;
#X connect 52 0 19 0;
#X connect 53 0 54 0;
#X connect 55 0 11 0;
#X connect 58 0 44 0;
#X connect 59 0 68 0;
#X connect 60 0 61 0;
#X connect 61 0 63 0;
#X connect 62 0 60 0;
#X connect 63 0 64 0;
#X connect 64 0 58 0;
#X connect 65 0 64 1;
#X connect 66 0 61 1;
#X connect 66 0 58 1;
#X connect 66 0 65 0;
#X connect 67 0 62 1;
#X connect 68 0 62 0;
#X connect 69 0 72 0;
#X connect 70 0 71 0;
#X connect 71 0 74 0;
#X connect 72 0 70 0;
#X connect 75 0 73 0;
#X connect 76 0 56 0;
#X connect 77 0 56 0;
#X connect 78 0 73 0;
#X connect 79 0 68 1;
#X connect 83 0 84 0;
#X connect 84 0 85 0;
#X connect 85 0 86 0;
#X connect 89 0 87 0;
#X connect 90 0 88 0;
#X connect 91 0 90 0;
