#N canvas 574 1421 450 300 10;
#X obj 16 4 ctlin 8 1;
#X obj 16 26 / 127;
#X obj 16 48 s gain;
#X obj 94 49 s allspeed;
#X obj 94 6 ctlin 6 1;
#X obj 94 27 / 127;
#X connect 0 0 1 0;
#X connect 1 0 2 0;
#X connect 4 0 5 0;
#X connect 5 0 3 0;
