#N canvas 564 386 450 300 10;
#X obj 16 4 ctlin 8 1;
#X obj 16 26 / 127;
#X obj 16 48 s gain;
#X obj 94 49 s allspeed;
#X obj 94 6 ctlin 6 1;
#X obj 94 27 / 127;
#X obj 145 150 bng 15 250 50 0 empty empty empty 17 7 0 10 -262144
-1 -1;
#X obj 145 170 s pop;
#X obj 252 175 s strbmul;
#X obj 252 155 hradio 15 1 0 8 empty empty empty 0 -8 0 10 -262144
-1 -1 0;
#X obj 201 35 notein;
#X obj 201 75 spigot;
#X obj 252 133 - 35;
#X obj 201 99 sel 39 40;
#X obj 184 187 s testb;
#X connect 0 0 1 0;
#X connect 1 0 2 0;
#X connect 4 0 5 0;
#X connect 5 0 3 0;
#X connect 6 0 7 0;
#X connect 9 0 8 0;
#X connect 10 0 11 0;
#X connect 10 1 11 1;
#X connect 11 0 13 0;
#X connect 12 0 9 0;
#X connect 13 0 6 0;
#X connect 13 1 14 0;
#X connect 13 2 12 0;
