#N canvas 472 173 860 530 10;
#X obj 687 199 ctlin 8 1;
#X obj 687 221 / 127;
#X obj 550 243 s allspeed;
#X obj 550 200 ctlin 6 1;
#X obj 550 221 / 127;
#X obj 488 200 ctlin 5 1;
#X obj 488 221 div 20;
#X obj 488 243 max 1;
#X obj 116 89 pack f f;
#X obj 116 58 notein;
#X obj 116 110 s notes;
#X obj 213 58 r notes;
#X obj 213 103 sel 0;
#X obj 213 127 bng 15 250 50 0 empty empty empty 17 7 0 10 -262144
-1 -1;
#X obj 619 243 s position;
#X obj 619 221 / 127;
#X obj 117 191 s strbmul;
#X obj 488 265 s strbmul;
#X obj 619 200 ctlin 7 1;
#X obj 712 63 ctlin 8 1;
#X obj 712 85 / 127;
#X obj 575 85 / 127;
#X obj 513 85 div 20;
#X obj 644 85 / 127;
#X obj 644 64 ctlin 7 1;
#X obj 513 64 ctlin 1 1;
#X obj 575 64 ctlin 2 1;
#X obj 575 107 s strbtwo;
#X obj 253 147 s strbtwo_en;
#X obj 253 103 sel 0;
#X obj 253 127 bng 15 250 50 0 empty empty empty 17 7 0 10 -262144
-1 -1;
#X obj 687 243 s gain;
#X obj 336 147 s strbtwo_catch;
#X obj 293 103 sel 0;
#X obj 318 123 bng 15 250 50 0 empty empty empty 17 7 0 10 -262144
-1 -1;
#X obj 181 150 s popit;
#X obj 339 102 sel 0;
#X obj 358 123 bng 15 250 50 0 empty empty empty 17 7 0 10 -262144
-1 -1;
#X obj 213 80 route 39 43 42 38;
#X obj 444 132 s transition;
#X obj 275 -36 r osc;
#X obj 163 27 print osc;
#X obj 275 -10 routeOSC /2/pads;
#X obj 275 15 routeOSC /1 /2;
#X obj 272 39 routeOSC /3 /4;
#X obj 375 55 routeOSC /3 /4;
#X obj 482 -25 routeOSC /2;
#X obj 500 167 * 127;
#X obj 482 2 routeOSC /knobs2 /knobs5 /knobs6 /knobs7 /knobs8;
#X obj 251 406 s glitchit;
#X obj 235 284 r notes;
#X obj 244 353 sel 0;
#X msg 250 376 0;
#X msg 280 378 1;
#X obj 635 311 r osc;
#X obj 635 337 routeOSC /2/pads;
#X obj 635 362 routeOSC /1 /2;
#X obj 635 386 routeOSC /1 /2;
#X obj 726 386 routeOSC /1 /2;
#X obj 635 413 sel 0 1;
#X obj 621 463 s strbmul;
#X msg 625 435 1;
#X msg 658 437 4;
#X obj 551 393 r glitchit;
#X obj 473 343 sel 0 1;
#X obj 413 310 r flash;
#X obj 316 349 sel 0;
#X msg 322 372 0;
#X msg 352 374 1;
#X obj 353 411 s flash;
#X obj 449 414 s blackout;
#X obj 448 385 tgl 15 0 empty empty empty 17 7 0 10 -262144 -1 -1 0
1;
#X obj 474 368 sel 0 1;
#X obj 234 323 route 36 40 41;
#X obj 335 281 sel 0;
#X obj 354 314 t b;
#X connect 0 0 1 0;
#X connect 1 0 31 0;
#X connect 3 0 4 0;
#X connect 4 0 2 0;
#X connect 5 0 6 0;
#X connect 6 0 7 0;
#X connect 7 0 17 0;
#X connect 8 0 10 0;
#X connect 9 0 8 0;
#X connect 9 1 8 1;
#X connect 11 0 38 0;
#X connect 12 1 13 0;
#X connect 13 0 35 0;
#X connect 15 0 14 0;
#X connect 18 0 15 0;
#X connect 19 0 20 0;
#X connect 21 0 27 0;
#X connect 24 0 23 0;
#X connect 25 0 22 0;
#X connect 26 0 21 0;
#X connect 29 1 30 0;
#X connect 30 0 28 0;
#X connect 33 1 34 0;
#X connect 34 0 32 0;
#X connect 36 1 37 0;
#X connect 37 0 39 0;
#X connect 38 0 12 0;
#X connect 38 1 29 0;
#X connect 38 2 33 0;
#X connect 38 3 36 0;
#X connect 40 0 42 0;
#X connect 40 0 46 0;
#X connect 42 0 43 0;
#X connect 43 0 44 0;
#X connect 43 1 45 0;
#X connect 44 0 37 0;
#X connect 44 1 13 0;
#X connect 45 0 34 0;
#X connect 45 1 30 0;
#X connect 46 0 48 0;
#X connect 47 0 6 0;
#X connect 48 0 27 0;
#X connect 48 1 47 0;
#X connect 48 2 2 0;
#X connect 48 3 14 0;
#X connect 48 4 31 0;
#X connect 50 0 73 0;
#X connect 51 0 52 0;
#X connect 51 1 53 0;
#X connect 52 0 49 0;
#X connect 53 0 49 0;
#X connect 54 0 55 0;
#X connect 55 0 56 0;
#X connect 56 0 57 0;
#X connect 56 1 58 0;
#X connect 57 0 59 0;
#X connect 58 0 64 0;
#X connect 58 1 72 0;
#X connect 59 0 61 0;
#X connect 59 1 62 0;
#X connect 61 0 60 0;
#X connect 62 0 60 0;
#X connect 63 0 59 0;
#X connect 64 0 67 0;
#X connect 64 1 68 0;
#X connect 66 0 67 0;
#X connect 66 1 68 0;
#X connect 67 0 69 0;
#X connect 68 0 69 0;
#X connect 71 0 70 0;
#X connect 72 0 71 0;
#X connect 72 1 71 0;
#X connect 73 0 51 0;
#X connect 73 1 66 0;
#X connect 73 2 74 0;
#X connect 74 1 75 0;
#X connect 75 0 71 0;
