#N canvas 564 386 860 317 10;
#X obj 687 159 ctlin 8 1;
#X obj 687 181 / 127;
#X obj 687 203 s gain;
#X obj 550 203 s allspeed;
#X obj 550 160 ctlin 6 1;
#X obj 550 181 / 127;
#X obj 488 160 ctlin 5 1;
#X obj 488 181 div 20;
#X obj 488 203 max 1;
#X obj 116 88 pack f f;
#X obj 116 57 notein;
#X obj 116 109 s notes;
#X obj 53 60 r notes;
#X obj 53 82 print;
#X obj 213 57 r notes;
#X obj 213 79 route 39;
#X obj 213 102 sel 0;
#X obj 213 144 s pop;
#X obj 213 126 bng 15 250 50 0 empty empty empty 17 7 0 10 -262144
-1 -1;
#X obj 619 203 s position;
#X obj 619 160 ctlin 6 1;
#X obj 619 181 / 127;
#X obj 45 373 s strbmul;
#X obj 488 225 s strbmul;
#X connect 0 0 1 0;
#X connect 1 0 2 0;
#X connect 4 0 5 0;
#X connect 5 0 3 0;
#X connect 6 0 7 0;
#X connect 7 0 8 0;
#X connect 8 0 23 0;
#X connect 9 0 11 0;
#X connect 10 0 9 0;
#X connect 10 1 9 1;
#X connect 12 0 13 0;
#X connect 14 0 15 0;
#X connect 15 0 16 0;
#X connect 16 1 18 0;
#X connect 18 0 17 0;
#X connect 20 0 21 0;
#X connect 21 0 19 0;
