#N canvas 612 238 723 577 10;
#X obj 6 -120 route \$1;
#X obj 6 -98 unpack f f;
#X obj 6 -76 sel 0;
#X obj 6 -53 / 90;
#X obj 5 177 osc~;
#X obj 5 199 lop~ 100;
#X obj 6 -6 line;
#X obj 6 17 t b f;
#X obj 6 70 +;
#X obj 6 -142 r notes;
#X floatatom 106 123 5 0 0 0 - - -;
#X obj -77 -21 r freqwide;
#X obj 5 153 +;
#X obj -75 77 t b f;
#X obj -127 -17 inlet;
#X obj -123 18 / 127;
#X obj 5 225 *~;
#X obj 189 207 vline~;
#X obj 189 144 min 1;
#X obj 189 165 max 0;
#X msg 82 146 r phase;
#X msg 82 169 0.5;
#X msg 6 -29 1.3 \, 0 2000;
#X obj 6 48 f 40;
#X obj 105 105 tgl 15 0 empty empty empty 17 7 0 10 -262144 -1 -1 0
1;
#X obj 6 92 spigot;
#X obj 5 248 s~ speaker-\$1;
#X msg 189 186 \$1 20;
#X obj 189 123 r gain-\$1;
#X obj 251 123 loadbang;
#X msg 251 169 1;
#X connect 0 0 1 0;
#X connect 1 0 2 0;
#X connect 2 1 3 0;
#X connect 3 0 22 0;
#X connect 4 0 5 0;
#X connect 5 0 16 0;
#X connect 6 0 7 0;
#X connect 7 0 23 0;
#X connect 7 1 8 1;
#X connect 8 0 25 0;
#X connect 9 0 0 0;
#X connect 10 0 12 0;
#X connect 11 0 23 0;
#X connect 12 0 4 0;
#X connect 13 0 23 0;
#X connect 13 1 12 1;
#X connect 14 0 15 0;
#X connect 15 0 13 0;
#X connect 16 0 26 0;
#X connect 17 0 16 1;
#X connect 18 0 19 0;
#X connect 19 0 27 0;
#X connect 20 0 21 0;
#X connect 21 0 4 1;
#X connect 22 0 6 0;
#X connect 23 0 8 0;
#X connect 24 0 25 1;
#X connect 25 0 12 0;
#X connect 25 0 10 0;
#X connect 27 0 17 0;
#X connect 28 0 18 0;
#X connect 29 0 30 0;
#X connect 30 0 27 0;
#X coords 0 -1 1 1 40 45 1 100 100;
