#N canvas 612 238 450 366 10;
#X obj 6 -120 route \$1;
#X obj 6 -98 unpack f f;
#X obj 6 -76 sel 0;
#X obj 6 -53 / 90;
#X obj 6 175 osc~;
#X obj 6 197 lop~ 100;
#X obj 6 247 outlet~;
#X obj 6 -6 line;
#X obj 6 17 t b f;
#X obj 6 70 +;
#X obj 6 -142 r notes;
#X floatatom 106 123 5 0 0 0 - - -;
#X obj -77 -21 r freqwide;
#X obj 5 153 +;
#X obj -69 71 t b f;
#X obj -144 96 inlet;
#X obj -140 131 / 127;
#X obj 6 223 *~;
#X obj 193 178 vline~;
#X obj 188 89 min 1;
#X obj 188 111 max 0;
#X obj 200 53 inlet;
#X msg 186 143 \$1 50;
#X msg 82 146 r phase;
#X msg 82 169 0.5;
#X msg 6 -29 1.3 \, 0 2000;
#X obj 6 48 f 40;
#X obj 105 105 tgl 15 0 empty empty empty 17 7 0 10 -262144 -1 -1 0
1;
#X obj 15 113 spigot;
#X connect 0 0 1 0;
#X connect 1 0 2 0;
#X connect 2 1 3 0;
#X connect 3 0 25 0;
#X connect 4 0 5 0;
#X connect 5 0 17 0;
#X connect 7 0 8 0;
#X connect 8 0 26 0;
#X connect 8 1 9 1;
#X connect 9 0 28 0;
#X connect 10 0 0 0;
#X connect 11 0 13 0;
#X connect 12 0 26 0;
#X connect 13 0 4 0;
#X connect 14 0 26 0;
#X connect 14 1 13 1;
#X connect 15 0 16 0;
#X connect 16 0 14 0;
#X connect 17 0 6 0;
#X connect 18 0 17 1;
#X connect 19 0 20 0;
#X connect 20 0 22 0;
#X connect 21 0 19 0;
#X connect 22 0 18 0;
#X connect 23 0 24 0;
#X connect 24 0 4 1;
#X connect 25 0 7 0;
#X connect 26 0 9 0;
#X connect 27 0 28 1;
#X connect 28 0 13 0;
#X connect 28 0 11 0;
#X coords 0 -1 1 1 40 45 1 100 100;
