#N canvas 395 133 542 355 10;
#X obj 104 164 phasor~;
#X obj 437 193 line~;
#X floatatom 104 118 5 0 0 0 - - -;
#X obj 219 75 bng 15 250 50 0 empty empty empty 17 7 0 10 -262144 -1
-1;
#X obj 102 233 outlet~;
#X obj 85 65 inlet;
#X obj 102 210 *~ 0.5;
#X msg 437 171 \$1 20;
#X msg 478 122 0.996;
#X obj 243 31 inlet;
#X obj 433 84 loadbang;
#X msg 437 122 0.988;
#X obj 103 187 expr~ $v1>0.984;
#X msg 219 98 0.9;
#X connect 0 0 12 0;
#X connect 2 0 0 0;
#X connect 3 0 13 0;
#X connect 5 0 2 0;
#X connect 6 0 4 0;
#X connect 7 0 1 0;
#X connect 8 0 7 0;
#X connect 9 0 3 0;
#X connect 10 0 11 0;
#X connect 11 0 7 0;
#X connect 12 0 6 0;
#X connect 13 0 0 1;
#X coords 0 355 1 354 150 40 0;
