#N canvas 264 108 615 468 10;
#X obj 125 368 s~ strobe;
#X obj 245 226 phasor~;
#X obj 320 251 line~;
#X obj 245 290 expr~ $v1>$v2;
#X msg 284 204 0.5;
#X obj 102 128 bng 10 250 50 0 empty empty pop 13 4 0 10 -262144 -1
-1;
#X obj 102 115 hradio 10 1 0 8 empty empty mul 63 -6 0 10 -262144 -1
-1 1;
#X obj 209 48 r mainfreq;
#X obj 244 100 sig~;
#X obj 244 160 +~;
#X obj 245 125 *~;
#X obj 277 61 r strbump;
#X obj 277 125 vline~;
#X obj 102 56 r strbmul;
#X obj 43 56 loadbang;
#X msg 43 98 1;
#X obj 102 149 r pop;
#X obj 140 128 tgl 10 0 blackout empty blckt 13 5 0 10 -262144 -1 -1
0 1;
#X obj 245 201 +~;
#X obj 319 81 r strbspeed;
#X obj 319 125 vline~;
#X msg 319 103 \$1 10;
#X obj 245 334 delwrite~ ha 1000;
#X obj 125 347 delread~ ha;
#X obj 125 326 line;
#X msg 125 305 \$1 20;
#X obj 125 284 *;
#X obj 77 219 r position;
#X obj 245 312 *~ 0.2;
#X obj 385 295 expr~ $v1>$v2;
#X obj 385 316 *~ 0.2;
#X obj 386 272 phasor~ 0;
#X obj 386 135 r mainfreq;
#X obj 386 174 sig~;
#X obj 454 179 vline~;
#X msg 454 157 \$1 10;
#X obj 454 135 r strbtwo;
#X obj 387 197 +~;
#X obj 387 217 expr~ if($v2==1 \, $v1 \, 0);
#X obj 528 177 r strbtwo_en;
#X obj 528 198 tgl 15 0 empty empty empty 17 7 0 10 -262144 -1 -1 0
1;
#N canvas 485 340 450 300 duty 0;
#X msg 148 178 0.988;
#X obj 345 106 r blackout;
#X obj 345 130 sel 0;
#X obj 262 128 sel 0 1;
#X obj 148 61 r strbmul;
#X floatatom 190 179 5 0 0 0 - - -;
#X obj 148 107 sel 1;
#X obj 190 139 / 1000;
#X msg 119 61 1;
#X obj 119 41 loadbang;
#X obj 216 221 f;
#X obj 190 159 + 0.984;
#X obj 171 247 r duty;
#X obj 281 238 outlet;
#X obj 299 82 inlet;
#X msg 281 151 0.994;
#X obj 231 20 r flash;
#X obj 246 45 sel 0 1;
#X msg 256 72 0.5;
#X connect 0 0 10 0;
#X connect 1 0 2 0;
#X connect 2 0 10 0;
#X connect 2 1 13 0;
#X connect 3 0 10 0;
#X connect 3 1 15 0;
#X connect 4 0 6 0;
#X connect 5 0 10 0;
#X connect 6 0 0 0;
#X connect 6 1 7 0;
#X connect 7 0 11 0;
#X connect 8 0 6 0;
#X connect 9 0 8 0;
#X connect 10 0 13 0;
#X connect 11 0 5 0;
#X connect 12 0 10 0;
#X connect 14 0 3 0;
#X connect 15 0 13 0;
#X connect 16 0 17 0;
#X connect 17 0 10 0;
#X connect 17 1 18 0;
#X connect 18 0 13 0;
#X restore 320 229 pd duty;
#N canvas 649 297 646 413 comparator 0;
#X obj 81 222 edge~;
#X obj 81 264 s zerox;
#X obj 293 180 phasor~;
#X obj 293 91 sig~;
#X obj 294 113 +~;
#X obj 364 34 r allspeed;
#X obj 364 97 vline~;
#X msg 364 55 \$1 10;
#X obj 293 59 r mainfreq;
#X obj 364 76 any;
#X obj 356 142 vline~;
#X obj 294 159 +~;
#X obj 356 121 r subump;
#X text 42 97 duplicate of subs freq for comparison;
#X obj 81 243 speedlim 300;
#X obj 82 180 inlet~;
#X obj 81 201 expr~ if($v1>0.99 && $v2>0.995 \, 1 \, 0);
#X connect 0 0 14 0;
#X connect 2 0 16 1;
#X connect 3 0 4 0;
#X connect 4 0 11 0;
#X connect 5 0 7 0;
#X connect 6 0 4 1;
#X connect 7 0 9 0;
#X connect 8 0 3 0;
#X connect 9 0 6 0;
#X connect 10 0 11 1;
#X connect 11 0 2 0;
#X connect 12 0 10 0;
#X connect 14 0 1 0;
#X connect 15 0 16 0;
#X connect 16 0 0 0;
#X restore 223 265 pd comparator;
#X obj 230 391 edge~;
#X obj 230 370 expr~ if($v1>0.99 && $v2>0.99 \, 1 \, 0);
#X obj 230 412 speedlim 300;
#X obj 230 433 s strbwo_sync;
#X connect 1 0 3 0;
#X connect 1 0 42 0;
#X connect 1 0 44 0;
#X connect 2 0 3 1;
#X connect 2 0 29 1;
#X connect 3 0 28 0;
#X connect 4 0 1 1;
#X connect 5 0 4 0;
#X connect 6 0 10 1;
#X connect 7 0 8 0;
#X connect 7 0 26 1;
#X connect 8 0 10 0;
#X connect 9 0 18 0;
#X connect 10 0 9 0;
#X connect 11 0 12 0;
#X connect 12 0 9 1;
#X connect 13 0 6 0;
#X connect 14 0 15 0;
#X connect 15 0 6 0;
#X connect 16 0 5 0;
#X connect 18 0 1 0;
#X connect 19 0 21 0;
#X connect 20 0 18 1;
#X connect 21 0 20 0;
#X connect 23 0 0 0;
#X connect 24 0 23 0;
#X connect 25 0 24 0;
#X connect 26 0 25 0;
#X connect 27 0 26 0;
#X connect 28 0 22 0;
#X connect 29 0 30 0;
#X connect 30 0 22 0;
#X connect 31 0 29 0;
#X connect 31 0 44 1;
#X connect 32 0 33 0;
#X connect 33 0 37 0;
#X connect 34 0 37 1;
#X connect 35 0 34 0;
#X connect 36 0 35 0;
#X connect 37 0 38 0;
#X connect 38 0 31 0;
#X connect 39 0 40 0;
#X connect 40 0 38 1;
#X connect 40 0 41 0;
#X connect 41 0 2 0;
#X connect 43 0 45 0;
#X connect 44 0 43 0;
#X connect 45 0 46 0;
#X coords 0 -1 1 1 85 40 1 100 100;
