#N canvas 280 140 1048 591 10;
#X obj 77 482 s~ strobe;
#X obj 245 245 phasor~;
#X obj 320 245 line~;
#X msg 320 223 \$1 20;
#X obj 816 288 loadbang;
#X msg 816 337 0.988;
#X obj 245 309 expr~ $v1>$v2;
#X msg 284 223 0.5;
#X obj 102 128 bng 10 250 50 0 empty empty pop 13 4 0 10 -262144 -1
-1;
#X obj 102 115 hradio 10 1 0 8 empty empty mul 63 -6 0 10 -262144 -1
-1 3;
#X obj 236 27 r mainfreq;
#X obj 244 71 sig~;
#X obj 244 131 +~;
#X obj 245 96 *~;
#X obj 315 27 r strbump;
#X obj 277 96 vline~;
#X obj 102 56 r strbmul;
#X obj 43 56 loadbang;
#X msg 43 98 1;
#X obj 102 149 r pop;
#X obj 140 128 tgl 10 0 blackout empty blckt 13 5 0 10 -262144 -1 -1
0 1;
#X obj 245 220 +~;
#X obj 319 52 r strbspeed;
#X obj 319 96 vline~;
#X msg 319 74 \$1 10;
#X obj 245 353 delwrite~ ha 1000;
#X obj 77 414 delread~ ha;
#X obj 77 393 line;
#X msg 77 372 \$1 20;
#X obj 77 351 *;
#X obj 29 286 r position;
#X obj 245 331 *~ 0.2;
#X obj 208 418 edge~;
#X obj 348 314 expr~ $v1>$v2;
#X obj 208 397 expr~ if($v1>0.99 && $v2>0.99 \, 1 \, 0);
#X obj 208 460 s zerox;
#X obj 348 335 *~ 0.2;
#X obj 509 504 phasor~;
#X obj 509 409 sig~;
#X obj 510 431 +~;
#X obj 582 326 r allspeed;
#X obj 582 389 vline~;
#X msg 582 347 \$1 10;
#X obj 509 377 r mainfreq;
#X obj 582 368 any;
#X obj 574 439 vline~;
#X obj 510 457 +~;
#X obj 574 418 r subump;
#X text 516 524 duplicate of subs freq for comparison;
#X obj 349 291 phasor~ 0;
#X obj 208 439 speedlim 300;
#X obj 395 113 r mainfreq;
#X obj 395 157 sig~;
#X obj 469 157 vline~;
#X msg 469 135 \$1 10;
#X obj 469 113 r strbtwo;
#X obj 396 191 +~;
#X obj 396 236 expr~ if($v2==1 \, $v1 \, 0);
#X obj 537 185 r strbtwo_en;
#X obj 537 214 tgl 15 0 empty empty empty 17 7 0 10 -262144 -1 -1 0
1;
#X msg 858 337 0.993;
#X obj 949 287 r blackout;
#X obj 320 200 r duty;
#X obj 964 350 r duty;
#X obj 949 377 f;
#X obj 847 459 s duty;
#X obj 949 311 sel 0;
#X obj 878 259 r strbtwo_en;
#X obj 878 281 sel 0 1;
#X obj 724 256 r strbmul;
#X floatatom 735 373 5 0 0 0 - - -;
#X obj 724 281 sel 1;
#X obj 735 353 + 0.98;
#X obj 720 322 / 400;
#X connect 1 0 6 0;
#X connect 1 0 34 0;
#X connect 2 0 6 1;
#X connect 2 0 33 1;
#X connect 3 0 2 0;
#X connect 4 0 5 0;
#X connect 5 0 65 0;
#X connect 6 0 31 0;
#X connect 7 0 1 1;
#X connect 8 0 7 0;
#X connect 9 0 13 1;
#X connect 10 0 11 0;
#X connect 10 0 29 1;
#X connect 11 0 13 0;
#X connect 12 0 21 0;
#X connect 13 0 12 0;
#X connect 14 0 15 0;
#X connect 15 0 12 1;
#X connect 16 0 9 0;
#X connect 17 0 18 0;
#X connect 18 0 9 0;
#X connect 19 0 8 0;
#X connect 21 0 1 0;
#X connect 22 0 24 0;
#X connect 23 0 21 1;
#X connect 24 0 23 0;
#X connect 26 0 0 0;
#X connect 27 0 26 0;
#X connect 28 0 27 0;
#X connect 29 0 28 0;
#X connect 30 0 29 0;
#X connect 31 0 25 0;
#X connect 32 0 50 0;
#X connect 33 0 36 0;
#X connect 34 0 32 0;
#X connect 36 0 25 0;
#X connect 37 0 34 1;
#X connect 38 0 39 0;
#X connect 39 0 46 0;
#X connect 40 0 42 0;
#X connect 41 0 39 1;
#X connect 42 0 44 0;
#X connect 43 0 38 0;
#X connect 44 0 41 0;
#X connect 45 0 46 1;
#X connect 46 0 37 0;
#X connect 47 0 45 0;
#X connect 49 0 33 0;
#X connect 50 0 35 0;
#X connect 51 0 52 0;
#X connect 52 0 56 0;
#X connect 53 0 56 1;
#X connect 54 0 53 0;
#X connect 55 0 54 0;
#X connect 56 0 57 0;
#X connect 57 0 49 0;
#X connect 58 0 59 0;
#X connect 59 0 57 1;
#X connect 60 0 65 0;
#X connect 61 0 66 0;
#X connect 62 0 3 0;
#X connect 63 0 64 1;
#X connect 64 0 65 0;
#X connect 66 0 64 0;
#X connect 66 1 65 0;
#X connect 67 0 68 0;
#X connect 68 0 5 0;
#X connect 68 1 60 0;
#X connect 69 0 71 0;
#X connect 70 0 65 0;
#X connect 71 0 5 0;
#X connect 71 1 73 0;
#X connect 72 0 70 0;
#X connect 73 0 72 0;
#X coords 0 -1 1 1 85 40 1 100 100;
