#N canvas 258 1302 634 462 10;
#X obj 197 311 s~ strobe;
#X obj 197 245 phasor~;
#X obj 197 289 *~ 0.5;
#X obj 272 245 line~;
#X msg 272 223 \$1 20;
#X obj 272 149 loadbang;
#X msg 272 171 0.988;
#X obj 197 267 expr~ $v1>$v2;
#X msg 236 223 0.5;
#X obj 102 128 bng 10 250 50 0 empty empty pop 13 4 0 10 -262144 -1
-1;
#X obj 102 115 hradio 10 1 0 8 empty empty mul 63 -6 0 10 -262144 -1
-1 1;
#X obj 196 56 r mainfreq;
#X obj 196 100 sig~;
#X obj 196 160 +~;
#X obj 197 125 *~;
#X obj 267 56 r strbump;
#X obj 229 125 vline~;
#X obj 102 56 r strbmul;
#X obj 329 149 r duty;
#X obj 43 56 loadbang;
#X msg 43 98 1;
#X obj 102 149 r pop;
#X obj 140 128 tgl 10 0 empty empty blckt 13 5 0 10 -262144 -1 -1 0
1;
#X obj 197 220 +~;
#X obj 271 81 r strbspeed;
#X obj 271 125 vline~;
#X msg 271 103 \$1 10;
#X connect 1 0 7 0;
#X connect 2 0 0 0;
#X connect 3 0 7 1;
#X connect 4 0 3 0;
#X connect 5 0 6 0;
#X connect 6 0 4 0;
#X connect 7 0 2 0;
#X connect 8 0 1 1;
#X connect 9 0 8 0;
#X connect 10 0 14 1;
#X connect 11 0 12 0;
#X connect 12 0 14 0;
#X connect 13 0 23 0;
#X connect 14 0 13 0;
#X connect 15 0 16 0;
#X connect 16 0 13 1;
#X connect 17 0 10 0;
#X connect 18 0 4 0;
#X connect 19 0 20 0;
#X connect 20 0 10 0;
#X connect 21 0 9 0;
#X connect 22 0 4 0;
#X connect 23 0 1 0;
#X connect 24 0 26 0;
#X connect 25 0 23 1;
#X connect 26 0 25 0;
#X coords 0 -1 1 1 85 40 1 100 100;
