#N canvas 705 152 490 358 10;
#X obj 114 40 r freq-\$1;
#X obj 114 162 vline~;
#X obj 114 184 osc~;
#X msg 114 140 \$1 10;
#X obj 114 206 *~;
#X obj 114 250 lop~ 100;
#X obj 114 118 +;
#X obj 114 96 f;
#X obj 179 40 r bump-\$1;
#X obj 179 62 t b f;
#X obj 244 40 r gain-\$1;
#X obj 244 188 vline~;
#X msg 244 166 \$1 10;
#X obj 244 120 min 1;
#X obj 244 143 max 0;
#X obj 114 272 s~ sin-\$1;
#X obj 114 228 z~;
#X obj 309 40 r del-\$1;
#X obj 309 211 t f;
#X connect 0 0 7 0;
#X connect 1 0 2 0;
#X connect 2 0 4 0;
#X connect 3 0 1 0;
#X connect 4 0 16 0;
#X connect 5 0 15 0;
#X connect 6 0 3 0;
#X connect 7 0 6 0;
#X connect 8 0 9 0;
#X connect 9 0 7 0;
#X connect 9 1 6 1;
#X connect 10 0 13 0;
#X connect 11 0 4 1;
#X connect 12 0 11 0;
#X connect 13 0 14 0;
#X connect 14 0 12 0;
#X connect 16 0 5 0;
#X connect 17 0 18 0;
#X connect 18 0 16 1;
