#N canvas 372 307 543 423 10;
#X obj 104 254 osc~;
#X obj 104 276 lop~ 100;
#X floatatom 103 161 5 0 0 2 freq - -;
#X obj 104 298 *~;
#X obj 226 282 vline~;
#X msg 138 237 0.5;
#X obj 104 320 s~ speaker-\$1;
#X msg 226 261 \$1 20;
#X obj 103 185 sig~;
#X obj 104 207 +~;
#X obj 205 46 r allspeed;
#X obj 35 161 r bump-\$1;
#X obj 234 141 vline~;
#X msg 234 80 \$1 10;
#X obj 273 46 r speed-\$1;
#X obj 121 21 r mainfreq;
#X obj 59 21 r freq-\$1;
#X obj 201 141 line;
#X floatatom 103 130 5 0 0 2 bump - -;
#X obj 127 117 bng 10 250 50 0 empty empty empty 17 7 0 10 -262144
-1 -1;
#X obj 234 110 any;
#X obj 142 119 vsl 10 55 0 1 0 0 empty empty empty 0 -9 0 10 -262144
-1 -1 4050 1;
#X obj 142 46 r gain-\$1;
#X obj 387 247 loadbang;
#X msg 387 273 0.75;
#X obj 387 299 s gain-\$1;
#X obj 59 100 f;
#X obj 138 217 r subphase;
#X obj 368 40 r subphase;
#X obj 368 61 r sampdel-\$1;
#X obj 35 186 vline~;
#X obj 104 233 +~;
#X msg 6 140 1 \, 0 2000;
#X obj 368 82 r bump-\$1;
#X obj -25 161 r subump;
#X connect 0 0 1 0;
#X connect 1 0 3 0;
#X connect 2 0 8 0;
#X connect 3 0 6 0;
#X connect 4 0 3 1;
#X connect 5 0 0 1;
#X connect 7 0 4 0;
#X connect 8 0 9 0;
#X connect 9 0 31 0;
#X connect 10 0 13 0;
#X connect 11 0 30 0;
#X connect 12 0 9 1;
#X connect 13 0 20 0;
#X connect 14 0 13 0;
#X connect 15 0 26 0;
#X connect 16 0 26 0;
#X connect 17 0 18 0;
#X connect 19 0 32 0;
#X connect 20 0 12 0;
#X connect 20 0 17 0;
#X connect 21 0 7 0;
#X connect 22 0 21 0;
#X connect 23 0 24 0;
#X connect 24 0 25 0;
#X connect 26 0 2 0;
#X connect 27 0 5 0;
#X connect 30 0 31 1;
#X connect 31 0 0 0;
#X connect 32 0 30 0;
#X connect 34 0 30 0;
#X coords 0 -1 1 1 55 80 1 100 100;
