#N canvas 612 238 723 577 10;
#X obj 104 252 osc~;
#X obj 104 328 lop~ 100;
#X floatatom 103 161 5 0 0 2 freq - -;
#X obj 104 350 *~;
#X obj 187 334 vline~;
#X obj 187 271 min 1;
#X obj 187 292 max 0;
#X msg 138 215 r phase;
#X msg 138 235 0.5;
#X obj 104 372 s~ speaker-\$1;
#X msg 187 313 \$1 20;
#X obj 187 250 r gain-\$1;
#X obj 249 250 loadbang;
#X msg 249 296 1;
#X obj 103 185 sig~;
#X obj 104 215 +~;
#X obj 103 306 z~;
#X obj 192 215 r sampdel-\$1;
#X obj 205 46 r allspeed;
#X obj 341 46 r bump-\$1;
#X obj 234 141 vline~;
#X msg 234 80 \$1 10;
#X obj 273 46 r speed-\$1;
#X obj 38 -7 r mainfreq;
#X obj -24 -7 r freq-\$1;
#X obj -24 72 f 30;
#X msg 157 80 1.3 \, 0 2000;
#X obj 201 141 line;
#X floatatom 103 130 5 0 0 2 bump - -;
#X obj 127 117 bng 10 250 50 0 empty empty empty 17 7 0 10 -262144
-1 -1;
#X obj 234 110 any;
#X connect 0 0 16 0;
#X connect 1 0 3 0;
#X connect 2 0 14 0;
#X connect 3 0 9 0;
#X connect 4 0 3 1;
#X connect 5 0 6 0;
#X connect 6 0 10 0;
#X connect 7 0 8 0;
#X connect 8 0 0 1;
#X connect 10 0 4 0;
#X connect 11 0 5 0;
#X connect 12 0 13 0;
#X connect 13 0 10 0;
#X connect 14 0 15 0;
#X connect 15 0 0 0;
#X connect 16 0 1 0;
#X connect 17 0 16 1;
#X connect 18 0 21 0;
#X connect 19 0 30 0;
#X connect 20 0 15 1;
#X connect 21 0 30 0;
#X connect 22 0 21 0;
#X connect 23 0 25 0;
#X connect 24 0 25 0;
#X connect 25 0 2 0;
#X connect 26 0 30 0;
#X connect 27 0 28 0;
#X connect 29 0 26 0;
#X connect 30 0 20 0;
#X connect 30 0 27 0;
#X coords 0 -1 1 1 40 80 1 100 100;
