#N canvas 493 109 821 627 10;
#X obj 298 156 square_wave;
#X obj 222 377 dac~ 1 2 3 4 5 6 7 8;
#X obj 421 -40 notein;
#X obj 421 -11 pack f f f;
#X obj 421 12 s notes;
#X obj 541 13 pack f f f;
#X obj 541 -16 ctlin;
#X obj 541 36 s ctls;
#X obj 125 72 s freqwide;
#X floatatom 125 40 5 0 0 0 - - -;
#X obj 298 53 r freqwide;
#X obj 298 108 *;
#X obj 366 54 t b f;
#X obj 298 86 f;
#X obj 366 33 - 35;
#X obj 366 12 moses 39;
#X obj 369 186 ctlin 1 1;
#X obj 307 186 ctlin 2 1;
#X obj 229 188 ctlin 3 1;
#X obj 133 189 ctlin 4 1;
#X msg 272 212 1;
#X msg 178 212 1;
#X obj 648 41 bng 15 250 50 0 empty empty empty 17 7 0 10 -262144 -1
-1;
#X obj 648 63 s phase;
#X obj 421 57 route 39;
#X obj 401 109 t b;
#X obj 240 87 loadbang;
#X msg 240 109 1;
#X obj 462 210 loadbang;
#X msg 342 210 1;
#X floatatom 345 120 5 0 0 0 - - -;
#X obj 447 125 bng 15 250 50 0 empty empty empty 17 7 0 10 -262144
-1 -1;
#X obj 421 79 moses 0;
#X msg 412 208 0.7;
#X floatatom 257 147 5 0 0 0 - - -;
#X obj 133 236 oscor 43;
#X obj 225 -4 s allspeed;
#X obj 42 217 r allspeed;
#X floatatom 42 239 5 0 0 0 - - -;
#X msg 93 -12 29.97;
#X msg 155 19 30.1;
#X obj 34 37 ctlin 5 1;
#X obj 34 59 / 3;
#X obj 32 88 + 10;
#X obj 225 -26 ctlin 6 1;
#X obj 194 327 *~;
#X obj 164 326 *~;
#X obj 362 321 *~;
#X obj 332 320 *~;
#X obj 539 294 ctlin 8 1;
#X obj 539 316 / 127;
#X msg 539 338 \$1 20;
#X obj 539 360 vline~;
#X msg 182 41 30;
#X msg 149 -11 24;
#X obj 315 231 oscor 41;
#X obj 369 231 oscor 40;
#X obj 229 236 oscor 42;
#X msg 354 108 0;
#X connect 0 0 1 5;
#X connect 2 0 3 0;
#X connect 2 0 15 0;
#X connect 2 1 3 1;
#X connect 2 2 3 2;
#X connect 3 0 4 0;
#X connect 3 0 24 0;
#X connect 5 0 7 0;
#X connect 6 0 5 0;
#X connect 6 1 5 1;
#X connect 6 2 5 2;
#X connect 9 0 8 0;
#X connect 10 0 13 0;
#X connect 11 0 0 0;
#X connect 11 0 34 0;
#X connect 12 0 13 0;
#X connect 12 1 11 1;
#X connect 13 0 11 0;
#X connect 14 0 12 0;
#X connect 15 0 14 0;
#X connect 16 0 56 0;
#X connect 17 0 55 0;
#X connect 18 0 57 0;
#X connect 19 0 35 0;
#X connect 20 0 57 1;
#X connect 21 0 35 1;
#X connect 22 0 23 0;
#X connect 24 0 32 0;
#X connect 25 0 0 1;
#X connect 25 0 31 0;
#X connect 26 0 27 0;
#X connect 27 0 11 1;
#X connect 28 0 33 0;
#X connect 28 0 29 0;
#X connect 28 0 20 0;
#X connect 28 0 21 0;
#X connect 29 0 55 1;
#X connect 30 0 0 0;
#X connect 32 1 25 0;
#X connect 33 0 56 1;
#X connect 35 0 45 0;
#X connect 37 0 35 0;
#X connect 37 0 38 0;
#X connect 37 0 55 0;
#X connect 37 0 56 0;
#X connect 37 0 57 0;
#X connect 39 0 9 0;
#X connect 40 0 9 0;
#X connect 41 0 42 0;
#X connect 42 0 43 0;
#X connect 43 0 9 0;
#X connect 44 0 36 0;
#X connect 45 0 1 1;
#X connect 46 0 1 0;
#X connect 47 0 1 7;
#X connect 48 0 1 6;
#X connect 49 0 50 0;
#X connect 50 0 51 0;
#X connect 51 0 52 0;
#X connect 52 0 48 1;
#X connect 52 0 47 1;
#X connect 52 0 45 1;
#X connect 52 0 46 1;
#X connect 53 0 9 0;
#X connect 54 0 9 0;
#X connect 55 0 48 0;
#X connect 56 0 47 0;
#X connect 57 0 46 0;
#X connect 58 0 0 0;
